 <svg
                  width="562"
                  height="117"
                  
                  viewBox="0 0 562 117"
                  fill="none"
                  xmlns="http://www.w3.org/2000/svg"
                >
                   <!-- Poor --> 
                  <rect width="561.097" height="88.0645" fill="#E86D75" />
                  {/* <!-- Blank --> */}
                  <rect
                    x="187.452"
                    width="186.194"
                    height="88.0645"
                    fill="#FFA255"
                  />
                   <!-- Good --> 
                  <rect
                    x="373.645"
                    width="187.452"
                    height="88.0645"
                    fill="#51E08D"
                  />

                   <!-- Text --> 
                  <path
                    d="M138.577 57.871L134.35 50.0206H133.716V57.871H127.798V36.5845H137.128C138.839 36.5845 140.288 36.8864 141.476 37.4903C142.663 38.0741 143.559 38.8893 144.163 39.936C144.767 40.9626 145.069 42.12 145.069 43.4082C145.069 44.8575 144.666 46.1357 143.861 47.2428C143.076 48.3298 141.919 49.1048 140.389 49.5677L145.19 57.871H138.577ZM133.716 45.9747H136.645C137.45 45.9747 138.054 45.7835 138.456 45.401C138.859 45.0186 139.06 44.465 139.06 43.7404C139.06 43.056 138.849 42.5226 138.426 42.1401C138.024 41.7375 137.43 41.5362 136.645 41.5362H133.716V45.9747Z"
                    fill="white"
                  />
                  <path
                    d="M111.218 58.0823C109.226 58.0823 107.394 57.6194 105.723 56.6934C104.053 55.7474 102.724 54.449 101.738 52.7985C100.772 51.1278 100.288 49.2457 100.288 47.1523C100.288 45.0589 100.772 43.1869 101.738 41.5363C102.724 39.8656 104.053 38.5672 105.723 37.6413C107.394 36.7154 109.226 36.2524 111.218 36.2524C113.231 36.2524 115.063 36.7154 116.714 37.6413C118.384 38.5672 119.703 39.8656 120.669 41.5363C121.635 43.1869 122.118 45.0589 122.118 47.1523C122.118 49.2457 121.635 51.1278 120.669 52.7985C119.703 54.449 118.384 55.7474 116.714 56.6934C115.043 57.6194 113.211 58.0823 111.218 58.0823ZM111.218 52.5871C112.728 52.5871 113.916 52.094 114.781 51.1076C115.667 50.1213 116.11 48.8029 116.11 47.1523C116.11 45.4614 115.667 44.1329 114.781 43.1667C113.916 42.1804 112.728 41.6872 111.218 41.6872C109.689 41.6872 108.491 42.1804 107.625 43.1667C106.76 44.1329 106.327 45.4614 106.327 47.1523C106.327 48.823 106.76 50.1515 107.625 51.1378C108.491 52.104 109.689 52.5871 111.218 52.5871Z"
                    fill="white"
                  />
                  <path
                    d="M84.4335 58.0823C82.4407 58.0823 80.609 57.6194 78.9382 56.6934C77.2675 55.7474 75.939 54.449 74.9527 52.7985C73.9865 51.1278 73.5034 49.2457 73.5034 47.1523C73.5034 45.0589 73.9865 43.1869 74.9527 41.5363C75.939 39.8656 77.2675 38.5672 78.9382 37.6413C80.609 36.7154 82.4407 36.2524 84.4335 36.2524C86.4464 36.2524 88.2781 36.7154 89.9287 37.6413C91.5994 38.5672 92.9179 39.8656 93.884 41.5363C94.8502 43.1869 95.3333 45.0589 95.3333 47.1523C95.3333 49.2457 94.8502 51.1278 93.884 52.7985C92.9179 54.449 91.5994 55.7474 89.9287 56.6934C88.258 57.6194 86.4262 58.0823 84.4335 58.0823ZM84.4335 52.5871C85.9431 52.5871 87.1308 52.094 87.9963 51.1076C88.882 50.1213 89.3248 48.8029 89.3248 47.1523C89.3248 45.4614 88.882 44.1329 87.9963 43.1667C87.1308 42.1804 85.9431 41.6872 84.4335 41.6872C82.9037 41.6872 81.706 42.1804 80.8404 43.1667C79.9749 44.1329 79.5421 45.4614 79.5421 47.1523C79.5421 48.823 79.9749 50.1515 80.8404 51.1378C81.706 52.104 82.9037 52.5871 84.4335 52.5871Z"
                    fill="white"
                  />
                  <path
                    d="M68.8312 43.68C68.8312 44.9682 68.5293 46.1458 67.9254 47.2126C67.3417 48.2593 66.4459 49.1048 65.2382 49.7489C64.0506 50.3729 62.5912 50.6849 60.8601 50.6849H57.9313V57.871H52.0134V36.5845H60.8601C62.5711 36.5845 64.0204 36.8864 65.208 37.4903C66.4157 38.0942 67.3215 38.9295 67.9254 39.9964C68.5293 41.0632 68.8312 42.2911 68.8312 43.68ZM60.2864 45.9747C61.9572 45.9747 62.7925 45.2098 62.7925 43.68C62.7925 42.1301 61.9572 41.3551 60.2864 41.3551H57.9313V45.9747H60.2864Z"
                    fill="white"
                  />
                  <path
                    d="M505.975 36.5845C508.209 36.5845 510.162 37.0374 511.833 37.9432C513.523 38.8289 514.822 40.0769 515.728 41.6872C516.633 43.2975 517.086 45.1393 517.086 47.2126C517.086 49.2658 516.623 51.0975 515.697 52.7079C514.792 54.3182 513.493 55.5863 511.802 56.5122C510.132 57.4181 508.189 57.871 505.975 57.871H497.551V36.5845H505.975ZM505.522 52.6475C507.253 52.6475 508.612 52.1744 509.598 51.2284C510.585 50.2823 511.078 48.9437 511.078 47.2126C511.078 45.4614 510.585 44.1128 509.598 43.1667C508.612 42.2005 507.253 41.7174 505.522 41.7174H503.469V52.6475H505.522Z"
                    fill="white"
                  />
                  <path
                    d="M480.972 58.0823C478.979 58.0823 477.147 57.6194 475.476 56.6934C473.806 55.7474 472.477 54.449 471.491 52.7985C470.525 51.1278 470.041 49.2457 470.041 47.1523C470.041 45.0589 470.525 43.1869 471.491 41.5363C472.477 39.8656 473.806 38.5672 475.476 37.6413C477.147 36.7154 478.979 36.2524 480.972 36.2524C482.984 36.2524 484.816 36.7154 486.467 37.6413C488.137 38.5672 489.456 39.8656 490.422 41.5363C491.388 43.1869 491.871 45.0589 491.871 47.1523C491.871 49.2457 491.388 51.1278 490.422 52.7985C489.456 54.449 488.137 55.7474 486.467 56.6934C484.796 57.6194 482.964 58.0823 480.972 58.0823ZM480.972 52.5871C482.481 52.5871 483.669 52.094 484.534 51.1076C485.42 50.1213 485.863 48.8029 485.863 47.1523C485.863 45.4614 485.42 44.1329 484.534 43.1667C483.669 42.1804 482.481 41.6872 480.972 41.6872C479.442 41.6872 478.244 42.1804 477.378 43.1667C476.513 44.1329 476.08 45.4614 476.08 47.1523C476.08 48.823 476.513 50.1515 477.378 51.1378C478.244 52.104 479.442 52.5871 480.972 52.5871Z"
                    fill="white"
                  />
                  <path
                    d="M454.186 58.0823C452.194 58.0823 450.362 57.6194 448.691 56.6934C447.021 55.7474 445.692 54.449 444.706 52.7985C443.74 51.1278 443.256 49.2457 443.256 47.1523C443.256 45.0589 443.74 43.1869 444.706 41.5363C445.692 39.8656 447.021 38.5672 448.691 37.6413C450.362 36.7154 452.194 36.2524 454.186 36.2524C456.199 36.2524 458.031 36.7154 459.682 37.6413C461.352 38.5672 462.671 39.8656 463.637 41.5363C464.603 43.1869 465.086 45.0589 465.086 47.1523C465.086 49.2457 464.603 51.1278 463.637 52.7985C462.671 54.449 461.352 55.7474 459.682 56.6934C458.011 57.6194 456.179 58.0823 454.186 58.0823ZM454.186 52.5871C455.696 52.5871 456.884 52.094 457.749 51.1076C458.635 50.1213 459.078 48.8029 459.078 47.1523C459.078 45.4614 458.635 44.1329 457.749 43.1667C456.884 42.1804 455.696 41.6872 454.186 41.6872C452.657 41.6872 451.459 42.1804 450.593 43.1667C449.728 44.1329 449.295 45.4614 449.295 47.1523C449.295 48.823 449.728 50.1515 450.593 51.1378C451.459 52.104 452.657 52.5871 454.186 52.5871Z"
                    fill="white"
                  />
                  <path
                    d="M431.697 43.5894C431.355 43.0258 430.882 42.593 430.278 42.2911C429.694 41.9891 429 41.8382 428.195 41.8382C426.705 41.8382 425.528 42.3213 424.662 43.2875C423.817 44.2537 423.394 45.552 423.394 47.1824C423.394 49.0142 423.847 50.4132 424.753 51.3793C425.679 52.3254 427.017 52.7984 428.769 52.7984C430.842 52.7984 432.321 51.8624 433.207 49.9904H427.259V45.7331H438.31V51.4699C437.847 52.5971 437.162 53.6539 436.257 54.6402C435.371 55.6266 434.244 56.4418 432.875 57.0859C431.506 57.7099 429.946 58.0219 428.195 58.0219C426.061 58.0219 424.169 57.569 422.518 56.6632C420.888 55.7373 419.62 54.4591 418.714 52.8286C417.828 51.1781 417.386 49.296 417.386 47.1824C417.386 45.089 417.828 43.2271 418.714 41.5966C419.62 39.9461 420.888 38.6679 422.518 37.7621C424.149 36.8361 426.031 36.3731 428.165 36.3731C430.842 36.3731 433.056 37.0173 434.807 38.3055C436.558 39.5938 437.645 41.3551 438.068 43.5894H431.697Z"
                    fill="white"
                  />

                   <!-- Bar --> 
                  <rect
                    y="95.6129"
                    width="561.097"
                    height="21.3871"
                    rx="10"
                    ry="10"
                    fill="#197cd0"
                  />
                   <!-- Triangle -->
                  <path
                    d="M468 70.4516L494.148 105.363H441.852L468 70.4516Z"
                    fill="#197cd0"
                  />
                </svg>