<svg width="426" height="716" viewBox="0 0 426 716" fill="none" xmlns="http://www.w3.org/2000/svg">
<line x1="137" y1="53.5" x2="203.008" y2="53.5" stroke="#FFA200" stroke-dasharray="6 6"/>
<line x1="223" y1="153.5" x2="289.008" y2="153.5" stroke="#FF7300" stroke-dasharray="6 6"/>
<line x1="137" y1="253.5" x2="203.008" y2="253.5" stroke="#FB2424" stroke-dasharray="6 6"/>
<line x1="223" y1="354.5" x2="289.008" y2="354.5" stroke="#FF00B3" stroke-dasharray="6 6"/>
<line x1="137" y1="454.5" x2="203.008" y2="454.5" stroke="#7700FF" stroke-dasharray="6 6"/>
<line x1="223" y1="555.5" x2="289.008" y2="555.5" stroke="#393FFF" stroke-dasharray="6 6"/>
<line x1="137" y1="653.5" x2="203.008" y2="653.5" stroke="#0095FF" stroke-dasharray="6 6"/>
<path d="M210 34H215V634H210V34Z" fill="url(#paint0_linear_43_14)"/>
<path d="M233 54C233 65.0457 224.046 74 213 74C201.954 74 193 65.0457 193 54C193 42.9543 201.954 34 213 34C224.046 34 233 42.9543 233 54Z" fill="#FFA200"/>
<path d="M223 54C223 59.5228 218.523 64 213 64C207.477 64 203 59.5228 203 54C203 48.4772 207.477 44 213 44C218.523 44 223 48.4772 223 54Z" fill="white"/>
<path d="M233 154C233 165.046 224.046 174 213 174C201.954 174 193 165.046 193 154C193 142.954 201.954 134 213 134C224.046 134 233 142.954 233 154Z" fill="#FF7300"/>
<path d="M223 154C223 159.523 218.523 164 213 164C207.477 164 203 159.523 203 154C203 148.477 207.477 144 213 144C218.523 144 223 148.477 223 154Z" fill="white"/>
<path d="M233 254C233 265.046 224.046 274 213 274C201.954 274 193 265.046 193 254C193 242.954 201.954 234 213 234C224.046 234 233 242.954 233 254Z" fill="#FB2424"/>
<path d="M223 254C223 259.523 218.523 264 213 264C207.477 264 203 259.523 203 254C203 248.477 207.477 244 213 244C218.523 244 223 248.477 223 254Z" fill="white"/>
<path d="M233 354C233 365.046 224.046 374 213 374C201.954 374 193 365.046 193 354C193 342.954 201.954 334 213 334C224.046 334 233 342.954 233 354Z" fill="#FF00B3"/>
<path d="M223 354C223 359.523 218.523 364 213 364C207.477 364 203 359.523 203 354C203 348.477 207.477 344 213 344C218.523 344 223 348.477 223 354Z" fill="white"/>
<path d="M233 454C233 465.046 224.046 474 213 474C201.954 474 193 465.046 193 454C193 442.954 201.954 434 213 434C224.046 434 233 442.954 233 454Z" fill="#7700FF"/>
<path d="M223 454C223 459.523 218.523 464 213 464C207.477 464 203 459.523 203 454C203 448.477 207.477 444 213 444C218.523 444 223 448.477 223 454Z" fill="white"/>
<path d="M233 554C233 565.046 224.046 574 213 574C201.954 574 193 565.046 193 554C193 542.954 201.954 534 213 534C224.046 534 233 542.954 233 554Z" fill="#393FFF"/>
<path d="M233 654C233 665.046 224.046 674 213 674C201.954 674 193 665.046 193 654C193 642.954 201.954 634 213 634C224.046 634 233 642.954 233 654Z" fill="#0095FF"/>
<path d="M223 554C223 559.523 218.523 564 213 564C207.477 564 203 559.523 203 554C203 548.477 207.477 544 213 544C218.523 544 223 548.477 223 554Z" fill="white"/>
<path d="M223 654C223 659.523 218.523 664 213 664C207.477 664 203 659.523 203 654C203 648.477 207.477 644 213 644C218.523 644 223 648.477 223 654Z" fill="white"/>
<path d="M149 54C149 76.0914 131.091 94 109 94C86.9086 94 69 76.0914 69 54C69 31.9086 86.9086 14 109 14C131.091 14 149 31.9086 149 54Z" fill="#FFA200"/>
<path d="M149 254C149 276.091 131.091 294 109 294C86.9086 294 69 276.091 69 254C69 231.909 86.9086 214 109 214C131.091 214 149 231.909 149 254Z" fill="#FB2424"/>
<path d="M149 454C149 476.091 131.091 494 109 494C86.9086 494 69 476.091 69 454C69 431.909 86.9086 414 109 414C131.091 414 149 431.909 149 454Z" fill="#7700FF"/>
<path d="M149 654C149 676.091 131.091 694 109 694C86.9086 694 69 676.091 69 654C69 631.909 86.9086 614 109 614C131.091 614 149 631.909 149 654Z" fill="#0095FF"/>
<g filter="url(#filter0_d_43_14)">
<path d="M144 54C144 73.33 128.33 89 109 89C89.67 89 74 73.33 74 54C74 34.67 89.67 19 109 19C128.33 19 144 34.67 144 54Z" fill="white"/>
</g>
<g filter="url(#filter1_d_43_14)">
<path d="M144 254C144 273.33 128.33 289 109 289C89.67 289 74 273.33 74 254C74 234.67 89.67 219 109 219C128.33 219 144 234.67 144 254Z" fill="white"/>
</g>
<g filter="url(#filter2_d_43_14)">
<path d="M144 454C144 473.33 128.33 489 109 489C89.67 489 74 473.33 74 454C74 434.67 89.67 419 109 419C128.33 419 144 434.67 144 454Z" fill="white"/>
</g>
<g filter="url(#filter3_d_43_14)">
<path d="M144 654C144 673.33 128.33 689 109 689C89.67 689 74 673.33 74 654C74 634.67 89.67 619 109 619C128.33 619 144 634.67 144 654Z" fill="white"/>
</g>
<path d="M93.5 43.5C93.5 42.5717 93.8687 41.6815 94.5251 41.0251C95.1815 40.3687 96.0717 40 97 40C97.9283 40 98.8185 40.3687 99.4749 41.0251C100.131 41.6815 100.5 42.5717 100.5 43.5C100.5 44.4283 100.131 45.3185 99.4749 45.9749C98.8185 46.6313 97.9283 47 97 47C96.0717 47 95.1815 46.6313 94.5251 45.9749C93.8687 45.3185 93.5 44.4283 93.5 43.5ZM93 53.3562C92.375 54.0562 92 54.9875 92 56C92 57.0125 92.375 57.9437 93 58.6437V53.35V53.3562ZM102.025 50.275C100.169 51.9187 99 54.325 99 57C99 59.1437 99.75 61.1125 101 62.6562V64C101 65.1063 100.106 66 99 66H95C93.8938 66 93 65.1063 93 64V62.325C90.6375 61.2 89 58.7938 89 56C89 52.1313 92.1312 49 96 49H98C99.5 49 100.887 49.4688 102.025 50.2688V50.275ZM117 64V62.6562C118.25 61.1125 119 59.1437 119 57C119 54.325 117.831 51.9187 115.975 50.2688C117.113 49.4688 118.5 49 120 49H122C125.869 49 129 52.1313 129 56C129 58.7938 127.362 61.2 125 62.325V64C125 65.1063 124.106 66 123 66H119C117.894 66 117 65.1063 117 64ZM117.5 43.5C117.5 42.5717 117.869 41.6815 118.525 41.0251C119.182 40.3687 120.072 40 121 40C121.928 40 122.818 40.3687 123.475 41.0251C124.131 41.6815 124.5 42.5717 124.5 43.5C124.5 44.4283 124.131 45.3185 123.475 45.9749C122.818 46.6313 121.928 47 121 47C120.072 47 119.182 46.6313 118.525 45.9749C117.869 45.3185 117.5 44.4283 117.5 43.5ZM125 53.3562V58.65C125.625 57.9438 126 57.0188 126 56.0063C126 54.9938 125.625 54.0625 125 53.3625V53.3562ZM109 40C110.061 40 111.078 40.4214 111.828 41.1716C112.579 41.9217 113 42.9391 113 44C113 45.0609 112.579 46.0783 111.828 46.8284C111.078 47.5786 110.061 48 109 48C107.939 48 106.922 47.5786 106.172 46.8284C105.421 46.0783 105 45.0609 105 44C105 42.9391 105.421 41.9217 106.172 41.1716C106.922 40.4214 107.939 40 109 40ZM104 57C104 58.0125 104.375 58.9375 105 59.6437V54.35C104.375 55.0563 104 55.9812 104 56.9937V57ZM113 54.3563V59.65C113.625 58.9438 114 58.0188 114 57.0063C114 55.9938 113.625 55.0625 113 54.3625V54.3563ZM117 57C117 59.7938 115.362 62.2 113 63.325V66C113 67.1063 112.106 68 111 68H107C105.894 68 105 67.1063 105 66V63.325C102.637 62.2 101 59.7938 101 57C101 53.1313 104.131 50 108 50H110C113.869 50 117 53.1313 117 57Z" fill="#FFA200"/>
<g clip-path="url(#clip0_43_14)">
<path d="M91.2222 244.292C89.8958 243.528 89 242.09 89 240.444C89 237.993 90.9931 236 93.4444 236C95.0903 236 96.5278 236.896 97.2917 238.222H120.701C121.472 236.896 122.91 236 124.556 236C127.007 236 129 237.993 129 240.444C129 242.09 128.104 243.528 126.778 244.292V263.257C128.104 264.028 129 265.458 129 267.104C129 269.556 127.007 271.549 124.556 271.549C122.91 271.549 121.472 270.653 120.708 269.326H97.2986C96.5278 270.653 95.0972 271.549 93.4514 271.549C91 271.549 89.0069 269.556 89.0069 267.104C89.0069 265.458 89.9028 264.021 91.2292 263.257V244.292H91.2222ZM120.708 242.667H97.2917C96.9028 243.34 96.3403 243.903 95.6667 244.292V263.257C96.3403 263.646 96.9028 264.208 97.2917 264.882H120.701C121.09 264.208 121.653 263.646 122.326 263.257V244.292C121.653 243.903 121.09 243.34 120.701 242.667H120.708ZM97.8889 247.111C97.8889 245.882 98.8819 244.889 100.111 244.889H109C110.229 244.889 111.222 245.882 111.222 247.111V253.778C111.222 255.007 110.229 256 109 256H100.111C98.8819 256 97.8889 255.007 97.8889 253.778V247.111ZM106.778 258.222H109C111.451 258.222 113.444 256.229 113.444 253.778V251.556H117.889C119.118 251.556 120.111 252.549 120.111 253.778V260.444C120.111 261.674 119.118 262.667 117.889 262.667H109C107.771 262.667 106.778 261.674 106.778 260.444V258.222Z" fill="#FB2424"/>
</g>
<path d="M89 439C89 437.617 90.1172 436.5 91.5 436.5H96.5H101.5H106.5C107.883 436.5 109 437.617 109 439C109 440.383 107.883 441.5 106.5 441.5V454.844C104.922 457.078 104 459.805 104 462.75C104 464.719 104.414 466.586 105.156 468.281C103.805 470.227 101.547 471.5 99 471.5C94.8594 471.5 91.5 468.141 91.5 464V441.5C90.1172 441.5 89 440.383 89 439ZM96.5 441.5V449H101.5V441.5H96.5ZM106.5 462.75C106.5 459.766 107.685 456.905 109.795 454.795C111.905 452.685 114.766 451.5 117.75 451.5C120.734 451.5 123.595 452.685 125.705 454.795C127.815 456.905 129 459.766 129 462.75C129 465.734 127.815 468.595 125.705 470.705C123.595 472.815 120.734 474 117.75 474C114.766 474 111.905 472.815 109.795 470.705C107.685 468.595 106.5 465.734 106.5 462.75ZM123.008 459.367C122.523 458.883 121.727 458.883 121.242 459.367L116.5 464.109L114.258 461.867C113.773 461.383 112.977 461.383 112.492 461.867C112.008 462.352 112.008 463.148 112.492 463.633L115.617 466.758C116.102 467.242 116.898 467.242 117.383 466.758L123.008 461.133C123.492 460.648 123.492 459.852 123.008 459.367Z" fill="#7700FF"/>
<g clip-path="url(#clip1_43_14)">
<path d="M109 637.75C100.023 637.75 92.75 645.023 92.75 654V657.125C92.75 658.164 91.9141 659 90.875 659C89.8359 659 89 658.164 89 657.125V654C89 642.953 97.9531 634 109 634C120.047 634 129 642.953 129 654V665.258C129 669.055 125.922 672.133 122.117 672.133L113.5 672.125C112.852 673.242 111.641 674 110.25 674H107.75C105.68 674 104 672.32 104 670.25C104 668.18 105.68 666.5 107.75 666.5H110.25C111.641 666.5 112.852 667.258 113.5 668.375L122.125 668.383C123.852 668.383 125.25 666.984 125.25 665.258V654C125.25 645.023 117.977 637.75 109 637.75ZM100.25 650.25H101.5C102.883 650.25 104 651.367 104 652.75V661.5C104 662.883 102.883 664 101.5 664H100.25C97.4922 664 95.25 661.758 95.25 659V655.25C95.25 652.492 97.4922 650.25 100.25 650.25ZM117.75 650.25C120.508 650.25 122.75 652.492 122.75 655.25V659C122.75 661.758 120.508 664 117.75 664H116.5C115.117 664 114 662.883 114 661.5V652.75C114 651.367 115.117 650.25 116.5 650.25H117.75Z" fill="#0095FF"/>
</g>
<path d="M357 154C357 176.091 339.091 194 317 194C294.909 194 277 176.091 277 154C277 131.909 294.909 114 317 114C339.091 114 357 131.909 357 154Z" fill="#FF7300"/>
<path d="M357 354C357 376.091 339.091 394 317 394C294.909 394 277 376.091 277 354C277 331.909 294.909 314 317 314C339.091 314 357 331.909 357 354Z" fill="#FF00B2"/>
<path d="M357 554C357 576.091 339.091 594 317 594C294.909 594 277 576.091 277 554C277 531.909 294.909 514 317 514C339.091 514 357 531.909 357 554Z" fill="#393FFF"/>
<g filter="url(#filter4_d_43_14)">
<path d="M352 154C352 173.33 336.33 189 317 189C297.67 189 282 173.33 282 154C282 134.67 297.67 119 317 119C336.33 119 352 134.67 352 154Z" fill="white"/>
</g>
<g filter="url(#filter5_d_43_14)">
<path d="M352 354C352 373.33 336.33 389 317 389C297.67 389 282 373.33 282 354C282 334.67 297.67 319 317 319C336.33 319 352 334.67 352 354Z" fill="white"/>
</g>
<g filter="url(#filter6_d_43_14)">
<path d="M352 554C352 573.33 336.33 589 317 589C297.67 589 282 573.33 282 554C282 534.67 297.67 519 317 519C336.33 519 352 534.67 352 554Z" fill="white"/>
</g>
<path d="M303.5 141.5C303.5 138.742 305.742 136.5 308.5 136.5H331C333.758 136.5 336 138.742 336 141.5V166.5C336 169.258 333.758 171.5 331 171.5H302.25C298.797 171.5 296 168.703 296 165.25V144C296 142.617 297.117 141.5 298.5 141.5C299.883 141.5 301 142.617 301 144V165.25C301 165.938 301.562 166.5 302.25 166.5C302.938 166.5 303.5 165.938 303.5 165.25V141.5ZM308.5 143.375V149.625C308.5 150.664 309.336 151.5 310.375 151.5H319.125C320.164 151.5 321 150.664 321 149.625V143.375C321 142.336 320.164 141.5 319.125 141.5H310.375C309.336 141.5 308.5 142.336 308.5 143.375ZM324.75 142.75C324.75 143.438 325.312 144 326 144H329.75C330.438 144 331 143.438 331 142.75C331 142.062 330.438 141.5 329.75 141.5H326C325.312 141.5 324.75 142.062 324.75 142.75ZM324.75 150.25C324.75 150.938 325.312 151.5 326 151.5H329.75C330.438 151.5 331 150.938 331 150.25C331 149.562 330.438 149 329.75 149H326C325.312 149 324.75 149.562 324.75 150.25ZM308.5 157.75C308.5 158.438 309.062 159 309.75 159H329.75C330.438 159 331 158.438 331 157.75C331 157.062 330.438 156.5 329.75 156.5H309.75C309.062 156.5 308.5 157.062 308.5 157.75ZM308.5 165.25C308.5 165.938 309.062 166.5 309.75 166.5H329.75C330.438 166.5 331 165.938 331 165.25C331 164.562 330.438 164 329.75 164H309.75C309.062 164 308.5 164.562 308.5 165.25Z" fill="#FF7300"/>
<g clip-path="url(#clip2_43_14)">
<path d="M320.55 339.075C319.487 338.769 318.381 339.388 318.075 340.45L310.075 368.45C309.769 369.513 310.387 370.619 311.45 370.925C312.512 371.231 313.619 370.612 313.925 369.55L321.925 341.55C322.231 340.488 321.612 339.381 320.55 339.075ZM325.587 346.581C324.806 347.363 324.806 348.631 325.587 349.413L331.169 355L325.581 360.588C324.8 361.369 324.8 362.638 325.581 363.419C326.362 364.2 327.631 364.2 328.412 363.419L335.412 356.419C336.194 355.638 336.194 354.369 335.412 353.588L328.412 346.588C327.631 345.806 326.362 345.806 325.581 346.588L325.587 346.581ZM306.419 346.581C305.637 345.8 304.369 345.8 303.587 346.581L296.587 353.581C295.806 354.363 295.806 355.631 296.587 356.413L303.587 363.413C304.369 364.194 305.637 364.194 306.419 363.413C307.2 362.631 307.2 361.363 306.419 360.581L300.831 355L306.419 349.413C307.2 348.631 307.2 347.363 306.419 346.581Z" fill="#FF00B2"/>
</g>
<g clip-path="url(#clip3_43_14)">
<path d="M308.234 566.07L305.82 563.656C305.156 562.992 304.922 562.031 305.219 561.141C305.453 560.445 305.766 559.539 306.141 558.5H297.875C297.203 558.5 296.578 558.141 296.242 557.555C295.906 556.969 295.914 556.25 296.258 555.672L300.359 548.758C301.375 547.047 303.211 546 305.195 546H311.625C311.812 545.688 312 545.398 312.187 545.117C318.586 535.68 328.117 535.367 333.805 536.414C334.711 536.578 335.414 537.289 335.586 538.195C336.633 543.891 336.312 553.414 326.883 559.813C326.609 560 326.312 560.188 326 560.375V566.805C326 568.789 324.953 570.633 323.242 571.641L316.328 575.742C315.75 576.086 315.031 576.094 314.445 575.758C313.859 575.422 313.5 574.805 313.5 574.125V565.75C312.398 566.133 311.437 566.445 310.711 566.68C309.836 566.961 308.883 566.719 308.227 566.07H308.234ZM326 549.125C326.829 549.125 327.624 548.796 328.21 548.21C328.796 547.624 329.125 546.829 329.125 546C329.125 545.171 328.796 544.376 328.21 543.79C327.624 543.204 326.829 542.875 326 542.875C325.171 542.875 324.376 543.204 323.79 543.79C323.204 544.376 322.875 545.171 322.875 546C322.875 546.829 323.204 547.624 323.79 548.21C324.376 548.796 325.171 549.125 326 549.125Z" fill="#393FFF"/>
</g>
<path d="M30.1313 345.48H33.8383C35.3856 345.48 36.6616 345.792 37.6663 346.415C38.6709 347.031 39.4189 347.885 39.9103 348.978C40.4016 350.071 40.6472 351.321 40.6472 352.729C40.6472 354.144 40.4016 355.398 39.9103 356.491C39.4263 357.584 38.6819 358.442 37.6773 359.065C36.6726 359.688 35.3929 360 33.8383 360H30.1313V345.48ZM32.4303 347.57V357.91H33.6403C34.6889 357.91 35.5469 357.69 36.2143 357.25C36.8889 356.803 37.3876 356.19 37.7103 355.413C38.0329 354.636 38.1979 353.748 38.2053 352.751C38.2126 351.754 38.0549 350.866 37.7323 350.089C37.4096 349.304 36.9073 348.688 36.2253 348.241C35.5506 347.794 34.6889 347.57 33.6403 347.57H32.4303ZM44.4775 356.04C44.4922 356.517 44.6058 356.946 44.8185 357.327C45.0312 357.708 45.3428 358.009 45.7535 358.229C46.1715 358.442 46.6812 358.548 47.2825 358.548C47.8032 358.548 48.2505 358.478 48.6245 358.339C49.0058 358.192 49.3212 358.02 49.5705 357.822C49.8198 357.617 50.0032 357.426 50.1205 357.25L51.1655 358.669C50.9382 358.977 50.6522 359.252 50.3075 359.494C49.9628 359.736 49.5338 359.923 49.0205 360.055C48.5145 360.194 47.8875 360.264 47.1395 360.264C46.1568 360.264 45.3025 360.062 44.5765 359.659C43.8505 359.256 43.2858 358.687 42.8825 357.954C42.4865 357.221 42.2885 356.363 42.2885 355.38C42.2885 354.5 42.4718 353.708 42.8385 353.004C43.2052 352.293 43.7368 351.732 44.4335 351.321C45.1375 350.91 45.9808 350.705 46.9635 350.705C47.8802 350.705 48.6758 350.888 49.3505 351.255C50.0252 351.622 50.5458 352.15 50.9125 352.839C51.2865 353.521 51.4735 354.346 51.4735 355.314C51.4735 355.373 51.4698 355.494 51.4625 355.677C51.4625 355.86 51.4552 355.981 51.4405 356.04H44.4775ZM49.2735 354.324C49.2662 354.089 49.1855 353.822 49.0315 353.521C48.8848 353.22 48.6465 352.96 48.3165 352.74C47.9865 352.513 47.5465 352.399 46.9965 352.399C46.4318 352.399 45.9735 352.509 45.6215 352.729C45.2695 352.942 45.0092 353.198 44.8405 353.499C44.6718 353.792 44.5728 354.067 44.5435 354.324H49.2735ZM52.5938 350.969H55.1128L57.8298 357.844L60.5468 350.969H63.0548L59.2158 360H56.4548L52.5938 350.969ZM66.3486 356.04C66.3632 356.517 66.4769 356.946 66.6896 357.327C66.9022 357.708 67.2139 358.009 67.6246 358.229C68.0426 358.442 68.5522 358.548 69.1536 358.548C69.6742 358.548 70.1216 358.478 70.4956 358.339C70.8769 358.192 71.1922 358.02 71.4416 357.822C71.6909 357.617 71.8742 357.426 71.9916 357.25L73.0366 358.669C72.8092 358.977 72.5232 359.252 72.1786 359.494C71.8339 359.736 71.4049 359.923 70.8916 360.055C70.3856 360.194 69.7586 360.264 69.0106 360.264C68.0279 360.264 67.1736 360.062 66.4476 359.659C65.7216 359.256 65.1569 358.687 64.7536 357.954C64.3576 357.221 64.1596 356.363 64.1596 355.38C64.1596 354.5 64.3429 353.708 64.7096 353.004C65.0762 352.293 65.6079 351.732 66.3046 351.321C67.0086 350.91 67.8519 350.705 68.8346 350.705C69.7512 350.705 70.5469 350.888 71.2216 351.255C71.8962 351.622 72.4169 352.15 72.7836 352.839C73.1576 353.521 73.3446 354.346 73.3446 355.314C73.3446 355.373 73.3409 355.494 73.3336 355.677C73.3336 355.86 73.3262 355.981 73.3116 356.04H66.3486ZM71.1446 354.324C71.1372 354.089 71.0566 353.822 70.9026 353.521C70.7559 353.22 70.5176 352.96 70.1876 352.74C69.8576 352.513 69.4176 352.399 68.8676 352.399C68.3029 352.399 67.8446 352.509 67.4926 352.729C67.1406 352.942 66.8802 353.198 66.7116 353.499C66.5429 353.792 66.4439 354.067 66.4146 354.324H71.1446ZM77.7429 360H75.3779V344.864H77.7429V360ZM84.6088 360.264C83.6628 360.264 82.8194 360.059 82.0788 359.648C81.3454 359.23 80.7698 358.665 80.3518 357.954C79.9338 357.235 79.7248 356.421 79.7248 355.512C79.7248 354.603 79.9338 353.785 80.3518 353.059C80.7698 352.333 81.3454 351.761 82.0788 351.343C82.8194 350.918 83.6628 350.705 84.6088 350.705C85.5548 350.705 86.3908 350.918 87.1168 351.343C87.8428 351.761 88.4111 352.333 88.8218 353.059C89.2398 353.785 89.4488 354.603 89.4488 355.512C89.4488 356.421 89.2398 357.235 88.8218 357.954C88.4111 358.665 87.8428 359.23 87.1168 359.648C86.3908 360.059 85.5548 360.264 84.6088 360.264ZM84.6088 358.284C85.1368 358.284 85.5951 358.163 85.9838 357.921C86.3724 357.679 86.6731 357.349 86.8858 356.931C87.0984 356.513 87.2048 356.036 87.2048 355.501C87.2048 354.966 87.0984 354.489 86.8858 354.071C86.6731 353.646 86.3724 353.308 85.9838 353.059C85.5951 352.81 85.1368 352.685 84.6088 352.685C84.0808 352.685 83.6188 352.81 83.2228 353.059C82.8341 353.308 82.5298 353.646 82.3098 354.071C82.0971 354.489 81.9908 354.966 81.9908 355.501C81.9908 356.036 82.0971 356.513 82.3098 356.931C82.5298 357.349 82.8341 357.679 83.2228 357.921C83.6188 358.163 84.0808 358.284 84.6088 358.284ZM93.7797 364.576H91.4477V350.969H93.8127V352.542C93.8933 352.322 94.0803 352.069 94.3737 351.783C94.6743 351.497 95.0703 351.248 95.5617 351.035C96.053 350.815 96.614 350.705 97.2447 350.705C98.0953 350.705 98.8397 350.91 99.4777 351.321C100.123 351.724 100.625 352.285 100.985 353.004C101.351 353.723 101.535 354.551 101.535 355.49C101.535 356.429 101.348 357.257 100.974 357.976C100.6 358.695 100.083 359.256 99.4227 359.659C98.77 360.062 98.0183 360.264 97.1677 360.264C96.5003 360.264 95.921 360.143 95.4297 359.901C94.9383 359.652 94.5533 359.373 94.2747 359.065C93.996 358.757 93.831 358.511 93.7797 358.328V364.576ZM99.2137 355.49C99.2137 354.911 99.0927 354.405 98.8507 353.972C98.6087 353.539 98.286 353.206 97.8827 352.971C97.4867 352.729 97.0503 352.608 96.5737 352.608C96.0603 352.608 95.5947 352.733 95.1767 352.982C94.7587 353.224 94.425 353.561 94.1757 353.994C93.9337 354.419 93.8127 354.918 93.8127 355.49C93.8127 356.062 93.9337 356.564 94.1757 356.997C94.425 357.422 94.7587 357.756 95.1767 357.998C95.5947 358.24 96.0603 358.361 96.5737 358.361C97.0503 358.361 97.4867 358.244 97.8827 358.009C98.286 357.774 98.6087 357.441 98.8507 357.008C99.0927 356.575 99.2137 356.069 99.2137 355.49ZM114.765 350.705C115.44 350.705 116.019 350.848 116.503 351.134C116.995 351.42 117.372 351.86 117.636 352.454C117.908 353.048 118.043 353.807 118.043 354.731V360H115.722V355.149C115.722 354.276 115.598 353.613 115.348 353.158C115.106 352.703 114.648 352.476 113.973 352.476C113.607 352.476 113.262 352.575 112.939 352.773C112.617 352.971 112.356 353.268 112.158 353.664C111.968 354.053 111.872 354.548 111.872 355.149V360H109.694V355.149C109.694 354.276 109.544 353.613 109.243 353.158C108.95 352.703 108.51 352.476 107.923 352.476C107.549 352.476 107.205 352.571 106.889 352.762C106.574 352.953 106.321 353.246 106.13 353.642C105.94 354.038 105.844 354.54 105.844 355.149V360H103.512V350.969H105.844V352.322C105.925 352.095 106.105 351.856 106.383 351.607C106.669 351.358 107.025 351.145 107.45 350.969C107.876 350.793 108.341 350.705 108.847 350.705C109.397 350.705 109.852 350.808 110.211 351.013C110.578 351.211 110.868 351.46 111.08 351.761C111.3 352.062 111.462 352.362 111.564 352.663C111.667 352.362 111.865 352.062 112.158 351.761C112.459 351.46 112.833 351.211 113.28 351.013C113.728 350.808 114.223 350.705 114.765 350.705ZM122.101 356.04C122.115 356.517 122.229 356.946 122.442 357.327C122.654 357.708 122.966 358.009 123.377 358.229C123.795 358.442 124.304 358.548 124.906 358.548C125.426 358.548 125.874 358.478 126.248 358.339C126.629 358.192 126.944 358.02 127.194 357.822C127.443 357.617 127.626 357.426 127.744 357.25L128.789 358.669C128.561 358.977 128.275 359.252 127.931 359.494C127.586 359.736 127.157 359.923 126.644 360.055C126.138 360.194 125.511 360.264 124.763 360.264C123.78 360.264 122.926 360.062 122.2 359.659C121.474 359.256 120.909 358.687 120.506 357.954C120.11 357.221 119.912 356.363 119.912 355.38C119.912 354.5 120.095 353.708 120.462 353.004C120.828 352.293 121.36 351.732 122.057 351.321C122.761 350.91 123.604 350.705 124.587 350.705C125.503 350.705 126.299 350.888 126.974 351.255C127.648 351.622 128.169 352.15 128.536 352.839C128.91 353.521 129.097 354.346 129.097 355.314C129.097 355.373 129.093 355.494 129.086 355.677C129.086 355.86 129.078 355.981 129.064 356.04H122.101ZM126.897 354.324C126.889 354.089 126.809 353.822 126.655 353.521C126.508 353.22 126.27 352.96 125.94 352.74C125.61 352.513 125.17 352.399 124.62 352.399C124.055 352.399 123.597 352.509 123.245 352.729C122.893 352.942 122.632 353.198 122.464 353.499C122.295 353.792 122.196 354.067 122.167 354.324H126.897ZM136.498 350.705C137.106 350.705 137.697 350.83 138.269 351.079C138.841 351.328 139.31 351.728 139.677 352.278C140.051 352.821 140.238 353.528 140.238 354.401V360H137.873V354.83C137.873 354.016 137.678 353.418 137.29 353.037C136.908 352.648 136.413 352.454 135.805 352.454C135.401 352.454 135.016 352.568 134.65 352.795C134.283 353.022 133.982 353.33 133.748 353.719C133.52 354.108 133.407 354.555 133.407 355.061V360H131.053V350.969H133.407V352.487C133.473 352.238 133.649 351.977 133.935 351.706C134.228 351.427 134.598 351.193 135.046 351.002C135.493 350.804 135.977 350.705 136.498 350.705ZM141.821 350.969H143.515V347.262H145.847V350.969H148.08V352.949H145.847V356.81C145.847 357.294 145.928 357.657 146.089 357.899C146.258 358.141 146.496 358.262 146.804 358.262C147.061 358.262 147.262 358.214 147.409 358.119C147.563 358.024 147.655 357.958 147.684 357.921L148.553 359.626C148.509 359.67 148.381 359.743 148.168 359.846C147.955 359.949 147.68 360.044 147.343 360.132C147.006 360.22 146.621 360.264 146.188 360.264C145.425 360.264 144.787 360.037 144.274 359.582C143.768 359.127 143.515 358.416 143.515 357.448V352.949H141.821V350.969Z" fill="#FF00B2"/>
<path d="M69.9659 145.48H74.4319C75.3412 145.48 76.1625 145.634 76.8959 145.942C77.6365 146.25 78.2269 146.723 78.6669 147.361C79.1069 147.999 79.3269 148.82 79.3269 149.825C79.3269 150.83 79.1069 151.669 78.6669 152.344C78.2269 153.011 77.6365 153.514 76.8959 153.851C76.1625 154.188 75.3412 154.357 74.4319 154.357H72.2759V160H69.9659V145.48ZM72.2759 152.465H73.7939C74.3585 152.465 74.8719 152.384 75.3339 152.223C75.8032 152.054 76.1735 151.779 76.4449 151.398C76.7235 151.017 76.8629 150.511 76.8629 149.88C76.8629 149.242 76.7235 148.743 76.4449 148.384C76.1735 148.017 75.8032 147.757 75.3339 147.603C74.8719 147.449 74.3585 147.372 73.7939 147.372H72.2759V152.465ZM83.8874 160H81.5224V144.864H83.8874V160ZM93.6243 160V158.328C93.5656 158.504 93.3969 158.746 93.1183 159.054C92.8469 159.362 92.4729 159.641 91.9963 159.89C91.5269 160.139 90.9696 160.264 90.3243 160.264C89.4809 160.264 88.7219 160.062 88.0473 159.659C87.3726 159.256 86.8409 158.695 86.4523 157.976C86.0636 157.257 85.8693 156.429 85.8693 155.49C85.8693 154.551 86.0636 153.723 86.4523 153.004C86.8409 152.285 87.3726 151.724 88.0473 151.321C88.7219 150.91 89.4809 150.705 90.3243 150.705C90.9549 150.705 91.5013 150.815 91.9633 151.035C92.4253 151.255 92.7956 151.508 93.0743 151.794C93.3603 152.08 93.5363 152.329 93.6023 152.542V150.969H95.9343V160H93.6243ZM88.1903 155.49C88.1903 156.069 88.3186 156.575 88.5753 157.008C88.8319 157.441 89.1656 157.774 89.5763 158.009C89.9943 158.244 90.4416 158.361 90.9183 158.361C91.4316 158.361 91.8863 158.24 92.2823 157.998C92.6856 157.756 93.0009 157.422 93.2283 156.997C93.4629 156.564 93.5803 156.062 93.5803 155.49C93.5803 154.918 93.4629 154.419 93.2283 153.994C93.0009 153.561 92.6856 153.224 92.2823 152.982C91.8863 152.733 91.4316 152.608 90.9183 152.608C90.4416 152.608 89.9943 152.729 89.5763 152.971C89.1656 153.206 88.8319 153.539 88.5753 153.972C88.3186 154.405 88.1903 154.911 88.1903 155.49ZM103.756 150.705C104.364 150.705 104.955 150.83 105.527 151.079C106.099 151.328 106.568 151.728 106.935 152.278C107.309 152.821 107.496 153.528 107.496 154.401V160H105.131V154.83C105.131 154.016 104.936 153.418 104.548 153.037C104.166 152.648 103.671 152.454 103.063 152.454C102.659 152.454 102.274 152.568 101.908 152.795C101.541 153.022 101.24 153.33 101.006 153.719C100.778 154.108 100.665 154.555 100.665 155.061V160H98.3106V150.969H100.665V152.487C100.731 152.238 100.907 151.977 101.193 151.706C101.486 151.427 101.856 151.193 102.304 151.002C102.751 150.804 103.235 150.705 103.756 150.705ZM115.25 150.705C115.858 150.705 116.449 150.83 117.021 151.079C117.593 151.328 118.062 151.728 118.429 152.278C118.803 152.821 118.99 153.528 118.99 154.401V160H116.625V154.83C116.625 154.016 116.43 153.418 116.042 153.037C115.66 152.648 115.165 152.454 114.557 152.454C114.153 152.454 113.768 152.568 113.402 152.795C113.035 153.022 112.734 153.33 112.5 153.719C112.272 154.108 112.159 154.555 112.159 155.061V160H109.805V150.969H112.159V152.487C112.225 152.238 112.401 151.977 112.687 151.706C112.98 151.427 113.35 151.193 113.798 151.002C114.245 150.804 114.729 150.705 115.25 150.705ZM121.519 160V150.969H123.862V160H121.519ZM122.718 148.263C122.322 148.263 121.981 148.12 121.695 147.834C121.416 147.548 121.277 147.207 121.277 146.811C121.277 146.415 121.416 146.074 121.695 145.788C121.981 145.495 122.322 145.348 122.718 145.348C122.982 145.348 123.224 145.418 123.444 145.557C123.671 145.689 123.851 145.865 123.983 146.085C124.122 146.298 124.192 146.54 124.192 146.811C124.192 147.207 124.049 147.548 123.763 147.834C123.477 148.12 123.129 148.263 122.718 148.263ZM132.008 150.705C132.616 150.705 133.207 150.83 133.779 151.079C134.351 151.328 134.82 151.728 135.187 152.278C135.561 152.821 135.748 153.528 135.748 154.401V160H133.383V154.83C133.383 154.016 133.188 153.418 132.8 153.037C132.418 152.648 131.923 152.454 131.315 152.454C130.911 152.454 130.526 152.568 130.16 152.795C129.793 153.022 129.492 153.33 129.258 153.719C129.03 154.108 128.917 154.555 128.917 155.061V160H126.563V150.969H128.917V152.487C128.983 152.238 129.159 151.977 129.445 151.706C129.738 151.427 130.108 151.193 130.556 151.002C131.003 150.804 131.487 150.705 132.008 150.705ZM142.545 164.829C141.855 164.829 141.214 164.759 140.62 164.62C140.033 164.488 139.509 164.286 139.047 164.015C138.585 163.751 138.211 163.425 137.925 163.036L139.388 161.584C139.542 161.775 139.74 161.973 139.982 162.178C140.224 162.391 140.543 162.567 140.939 162.706C141.335 162.853 141.837 162.926 142.446 162.926C143.04 162.926 143.546 162.805 143.964 162.563C144.389 162.321 144.712 161.987 144.932 161.562C145.159 161.144 145.273 160.66 145.273 160.11V159.835H147.583V160.253C147.583 161.25 147.359 162.086 146.912 162.761C146.464 163.443 145.859 163.956 145.097 164.301C144.334 164.653 143.483 164.829 142.545 164.829ZM145.273 160V158.328C145.214 158.504 145.045 158.746 144.767 159.054C144.495 159.362 144.121 159.641 143.645 159.89C143.175 160.139 142.618 160.264 141.973 160.264C141.129 160.264 140.37 160.062 139.696 159.659C139.021 159.256 138.489 158.695 138.101 157.976C137.712 157.257 137.518 156.429 137.518 155.49C137.518 154.551 137.712 153.723 138.101 153.004C138.489 152.285 139.021 151.724 139.696 151.321C140.37 150.91 141.129 150.705 141.973 150.705C142.603 150.705 143.15 150.815 143.612 151.035C144.074 151.255 144.444 151.508 144.723 151.794C145.009 152.08 145.185 152.329 145.251 152.542V150.969H147.583V160H145.273ZM139.839 155.49C139.839 156.069 139.967 156.575 140.224 157.008C140.48 157.441 140.814 157.774 141.225 158.009C141.643 158.244 142.09 158.361 142.567 158.361C143.08 158.361 143.535 158.24 143.931 157.998C144.334 157.756 144.649 157.422 144.877 156.997C145.111 156.564 145.229 156.062 145.229 155.49C145.229 154.918 145.111 154.419 144.877 153.994C144.649 153.561 144.334 153.224 143.931 152.982C143.535 152.733 143.08 152.608 142.567 152.608C142.09 152.608 141.643 152.729 141.225 152.971C140.814 153.206 140.48 153.539 140.224 153.972C139.967 154.405 139.839 154.911 139.839 155.49Z" fill="#FF7300"/>
<path d="M278.1 45.48H283.435C284.234 45.48 284.957 45.6487 285.602 45.986C286.255 46.316 286.772 46.8 287.153 47.438C287.534 48.076 287.725 48.8497 287.725 49.759C287.725 50.661 287.553 51.4053 287.208 51.992C286.863 52.5787 286.449 53.0187 285.965 53.312C285.481 53.6053 285.03 53.7703 284.612 53.807L288.187 60H285.58L282.28 53.983H280.41V60H278.1V45.48ZM280.41 52.311H282.61C283.387 52.311 284.04 52.1167 284.568 51.728C285.096 51.3393 285.36 50.705 285.36 49.825C285.36 48.9377 285.1 48.307 284.579 47.933C284.058 47.559 283.409 47.372 282.632 47.372H280.41V52.311ZM292.145 56.04C292.16 56.5167 292.274 56.9457 292.486 57.327C292.699 57.7083 293.011 58.009 293.421 58.229C293.839 58.4417 294.349 58.548 294.95 58.548C295.471 58.548 295.918 58.4783 296.292 58.339C296.674 58.1923 296.989 58.02 297.238 57.822C297.488 57.6167 297.671 57.426 297.788 57.25L298.833 58.669C298.606 58.977 298.32 59.252 297.975 59.494C297.631 59.736 297.202 59.923 296.688 60.055C296.182 60.1943 295.555 60.264 294.807 60.264C293.825 60.264 292.97 60.0623 292.244 59.659C291.518 59.2557 290.954 58.6873 290.55 57.954C290.154 57.2207 289.956 56.3627 289.956 55.38C289.956 54.5 290.14 53.708 290.506 53.004C290.873 52.2927 291.405 51.7317 292.101 51.321C292.805 50.9103 293.649 50.705 294.631 50.705C295.548 50.705 296.344 50.8883 297.018 51.255C297.693 51.6217 298.214 52.1497 298.58 52.839C298.954 53.521 299.141 54.346 299.141 55.314C299.141 55.3727 299.138 55.4937 299.13 55.677C299.13 55.8603 299.123 55.9813 299.108 56.04H292.145ZM296.941 54.324C296.934 54.0893 296.853 53.8217 296.699 53.521C296.553 53.2203 296.314 52.96 295.984 52.74C295.654 52.5127 295.214 52.399 294.664 52.399C294.1 52.399 293.641 52.509 293.289 52.729C292.937 52.9417 292.677 53.1983 292.508 53.499C292.34 53.7923 292.241 54.0673 292.211 54.324H296.941ZM304.728 50.705C305.234 50.705 305.703 50.7527 306.136 50.848C306.568 50.9433 306.939 51.057 307.247 51.189C307.555 51.321 307.767 51.431 307.885 51.519L307.027 52.971C306.88 52.8463 306.616 52.7033 306.235 52.542C305.861 52.3807 305.439 52.3 304.97 52.3C304.5 52.3 304.104 52.3843 303.782 52.553C303.459 52.7217 303.298 52.9747 303.298 53.312C303.298 53.642 303.466 53.906 303.804 54.104C304.148 54.302 304.614 54.467 305.201 54.599C305.685 54.709 306.147 54.863 306.587 55.061C307.027 55.2517 307.386 55.5267 307.665 55.886C307.951 56.238 308.094 56.711 308.094 57.305C308.094 57.8697 307.973 58.3427 307.731 58.724C307.496 59.098 307.181 59.3987 306.785 59.626C306.389 59.8533 305.949 60.0147 305.465 60.11C304.988 60.2127 304.508 60.264 304.024 60.264C303.43 60.264 302.898 60.2053 302.429 60.088C301.967 59.9707 301.582 59.835 301.274 59.681C300.966 59.5197 300.746 59.384 300.614 59.274L301.472 57.646C301.662 57.8293 301.974 58.0237 302.407 58.229C302.839 58.427 303.323 58.526 303.859 58.526C304.431 58.526 304.889 58.416 305.234 58.196C305.578 57.976 305.751 57.6827 305.751 57.316C305.751 57.0447 305.666 56.8247 305.498 56.656C305.336 56.4873 305.113 56.3517 304.827 56.249C304.541 56.1463 304.222 56.0547 303.87 55.974C303.54 55.8933 303.206 55.7907 302.869 55.666C302.539 55.534 302.234 55.3653 301.956 55.16C301.677 54.9473 301.453 54.6833 301.285 54.368C301.116 54.0527 301.032 53.6823 301.032 53.257C301.032 52.7143 301.204 52.2523 301.549 51.871C301.893 51.4897 302.348 51.2 302.913 51.002C303.477 50.804 304.082 50.705 304.728 50.705ZM311.804 56.04C311.818 56.5167 311.932 56.9457 312.145 57.327C312.357 57.7083 312.669 58.009 313.08 58.229C313.498 58.4417 314.007 58.548 314.609 58.548C315.129 58.548 315.577 58.4783 315.951 58.339C316.332 58.1923 316.647 58.02 316.897 57.822C317.146 57.6167 317.329 57.426 317.447 57.25L318.492 58.669C318.264 58.977 317.978 59.252 317.634 59.494C317.289 59.736 316.86 59.923 316.347 60.055C315.841 60.1943 315.214 60.264 314.466 60.264C313.483 60.264 312.629 60.0623 311.903 59.659C311.177 59.2557 310.612 58.6873 310.209 57.954C309.813 57.2207 309.615 56.3627 309.615 55.38C309.615 54.5 309.798 53.708 310.165 53.004C310.531 52.2927 311.063 51.7317 311.76 51.321C312.464 50.9103 313.307 50.705 314.29 50.705C315.206 50.705 316.002 50.8883 316.677 51.255C317.351 51.6217 317.872 52.1497 318.239 52.839C318.613 53.521 318.8 54.346 318.8 55.314C318.8 55.3727 318.796 55.4937 318.789 55.677C318.789 55.8603 318.781 55.9813 318.767 56.04H311.804ZM316.6 54.324C316.592 54.0893 316.512 53.8217 316.358 53.521C316.211 53.2203 315.973 52.96 315.643 52.74C315.313 52.5127 314.873 52.399 314.323 52.399C313.758 52.399 313.3 52.509 312.948 52.729C312.596 52.9417 312.335 53.1983 312.167 53.499C311.998 53.7923 311.899 54.0673 311.87 54.324H316.6ZM327.972 60V58.328C327.913 58.504 327.745 58.746 327.466 59.054C327.195 59.362 326.821 59.6407 326.344 59.89C325.875 60.1393 325.317 60.264 324.672 60.264C323.829 60.264 323.07 60.0623 322.395 59.659C321.72 59.2557 321.189 58.6947 320.8 57.976C320.411 57.2573 320.217 56.4287 320.217 55.49C320.217 54.5513 320.411 53.7227 320.8 53.004C321.189 52.2853 321.72 51.7243 322.395 51.321C323.07 50.9103 323.829 50.705 324.672 50.705C325.303 50.705 325.849 50.815 326.311 51.035C326.773 51.255 327.143 51.508 327.422 51.794C327.708 52.08 327.884 52.3293 327.95 52.542V50.969H330.282V60H327.972ZM322.538 55.49C322.538 56.0693 322.666 56.5753 322.923 57.008C323.18 57.4407 323.513 57.7743 323.924 58.009C324.342 58.2437 324.789 58.361 325.266 58.361C325.779 58.361 326.234 58.24 326.63 57.998C327.033 57.756 327.349 57.4223 327.576 56.997C327.811 56.5643 327.928 56.062 327.928 55.49C327.928 54.918 327.811 54.4193 327.576 53.994C327.349 53.5613 327.033 53.224 326.63 52.982C326.234 52.7327 325.779 52.608 325.266 52.608C324.789 52.608 324.342 52.729 323.924 52.971C323.513 53.2057 323.18 53.5393 322.923 53.972C322.666 54.4047 322.538 54.9107 322.538 55.49ZM334.935 60H332.592V50.969H334.935V52.476H334.88C334.932 52.2927 335.071 52.0653 335.298 51.794C335.533 51.5153 335.856 51.266 336.266 51.046C336.677 50.8187 337.172 50.705 337.751 50.705C338.169 50.705 338.543 50.7637 338.873 50.881C339.203 50.9983 339.438 51.1157 339.577 51.233L338.631 53.169C338.536 53.0517 338.356 52.938 338.092 52.828C337.836 52.7107 337.517 52.652 337.135 52.652C336.659 52.652 336.255 52.7913 335.925 53.07C335.603 53.3487 335.357 53.6823 335.188 54.071C335.02 54.4597 334.935 54.8227 334.935 55.16V60ZM344.956 58.361C345.477 58.361 345.898 58.2767 346.221 58.108C346.551 57.932 346.764 57.8037 346.859 57.723L347.97 59.373C347.882 59.4463 347.699 59.5563 347.42 59.703C347.141 59.8423 346.786 59.9707 346.353 60.088C345.928 60.2053 345.444 60.264 344.901 60.264C344.006 60.264 343.192 60.077 342.459 59.703C341.733 59.3217 341.15 58.7753 340.71 58.064C340.277 57.3453 340.061 56.4837 340.061 55.479C340.061 54.467 340.277 53.6053 340.71 52.894C341.15 52.1827 341.733 51.64 342.459 51.266C343.192 50.892 344.006 50.705 344.901 50.705C345.436 50.705 345.913 50.7673 346.331 50.892C346.756 51.0093 347.108 51.145 347.387 51.299C347.666 51.453 347.853 51.574 347.948 51.662L346.815 53.312C346.764 53.2607 346.657 53.18 346.496 53.07C346.342 52.9527 346.137 52.8463 345.88 52.751C345.623 52.6557 345.315 52.608 344.956 52.608C344.516 52.608 344.094 52.7253 343.691 52.96C343.288 53.1947 342.958 53.5283 342.701 53.961C342.444 54.3863 342.316 54.8923 342.316 55.479C342.316 56.0657 342.444 56.5753 342.701 57.008C342.958 57.4407 343.288 57.7743 343.691 58.009C344.094 58.2437 344.516 58.361 344.956 58.361ZM355.174 50.705C355.776 50.705 356.362 50.8297 356.934 51.079C357.506 51.3283 357.976 51.728 358.342 52.278C358.716 52.8207 358.903 53.5283 358.903 54.401V60H356.538V54.83C356.538 54.016 356.351 53.4183 355.977 53.037C355.611 52.6483 355.123 52.454 354.514 52.454C354.111 52.454 353.722 52.5677 353.348 52.795C352.974 53.0223 352.666 53.3303 352.424 53.719C352.19 54.1077 352.072 54.555 352.072 55.061V60H349.707V44.864H352.072V52.487C352.138 52.2377 352.314 51.9773 352.6 51.706C352.894 51.4273 353.264 51.1927 353.711 51.002C354.159 50.804 354.646 50.705 355.174 50.705Z" fill="#FFA200"/>
<path d="M286.988 244.48H289.298V253.467C289.298 254.662 289.06 255.696 288.583 256.569C288.114 257.434 287.457 258.102 286.614 258.571C285.771 259.033 284.788 259.264 283.666 259.264C282.551 259.264 281.569 259.033 280.718 258.571C279.867 258.102 279.204 257.434 278.727 256.569C278.25 255.696 278.012 254.662 278.012 253.467V244.48H280.322V253.346C280.322 254.138 280.465 254.816 280.751 255.381C281.044 255.946 281.44 256.378 281.939 256.679C282.445 256.98 283.021 257.13 283.666 257.13C284.311 257.13 284.883 256.98 285.382 256.679C285.881 256.378 286.273 255.946 286.559 255.381C286.845 254.816 286.988 254.138 286.988 253.346V244.48ZM299.12 251.19L304.455 259H301.463L297.547 253.104L293.686 259H290.892L296.062 251.19L291.387 244.48H294.313L297.624 249.397L300.902 244.48H303.718L299.12 251.19ZM312.781 243.864H314.728L307.468 261.112H305.532L312.781 243.864ZM325.66 244.48H327.97V253.467C327.97 254.662 327.732 255.696 327.255 256.569C326.786 257.434 326.129 258.102 325.286 258.571C324.443 259.033 323.46 259.264 322.338 259.264C321.223 259.264 320.241 259.033 319.39 258.571C318.539 258.102 317.876 257.434 317.399 256.569C316.922 255.696 316.684 254.662 316.684 253.467V244.48H318.994V253.346C318.994 254.138 319.137 254.816 319.423 255.381C319.716 255.946 320.112 256.378 320.611 256.679C321.117 256.98 321.693 257.13 322.338 257.13C322.983 257.13 323.555 256.98 324.054 256.679C324.553 256.378 324.945 255.946 325.231 255.381C325.517 254.816 325.66 254.138 325.66 253.346V244.48ZM330.741 244.48H333.051V259H330.741V244.48ZM341.543 244.48H345.25C346.798 244.48 348.074 244.792 349.078 245.415C350.083 246.031 350.831 246.885 351.322 247.978C351.814 249.071 352.059 250.321 352.059 251.729C352.059 253.144 351.814 254.398 351.322 255.491C350.838 256.584 350.094 257.442 349.089 258.065C348.085 258.688 346.805 259 345.25 259H341.543V244.48ZM343.842 246.57V256.91H345.052C346.101 256.91 346.959 256.69 347.626 256.25C348.301 255.803 348.8 255.19 349.122 254.413C349.445 253.636 349.61 252.748 349.617 251.751C349.625 250.754 349.467 249.866 349.144 249.089C348.822 248.304 348.319 247.688 347.637 247.241C346.963 246.794 346.101 246.57 345.052 246.57H343.842ZM355.89 255.04C355.904 255.517 356.018 255.946 356.231 256.327C356.443 256.708 356.755 257.009 357.166 257.229C357.584 257.442 358.093 257.548 358.695 257.548C359.215 257.548 359.663 257.478 360.037 257.339C360.418 257.192 360.733 257.02 360.983 256.822C361.232 256.617 361.415 256.426 361.533 256.25L362.578 257.669C362.35 257.977 362.064 258.252 361.72 258.494C361.375 258.736 360.946 258.923 360.433 259.055C359.927 259.194 359.3 259.264 358.552 259.264C357.569 259.264 356.715 259.062 355.989 258.659C355.263 258.256 354.698 257.687 354.295 256.954C353.899 256.221 353.701 255.363 353.701 254.38C353.701 253.5 353.884 252.708 354.251 252.004C354.617 251.293 355.149 250.732 355.846 250.321C356.55 249.91 357.393 249.705 358.376 249.705C359.292 249.705 360.088 249.888 360.763 250.255C361.437 250.622 361.958 251.15 362.325 251.839C362.699 252.521 362.886 253.346 362.886 254.314C362.886 254.373 362.882 254.494 362.875 254.677C362.875 254.86 362.867 254.981 362.853 255.04H355.89ZM360.686 253.324C360.678 253.089 360.598 252.822 360.444 252.521C360.297 252.22 360.059 251.96 359.729 251.74C359.399 251.513 358.959 251.399 358.409 251.399C357.844 251.399 357.386 251.509 357.034 251.729C356.682 251.942 356.421 252.198 356.253 252.499C356.084 252.792 355.985 253.067 355.956 253.324H360.686ZM368.472 249.705C368.978 249.705 369.447 249.753 369.88 249.848C370.313 249.943 370.683 250.057 370.991 250.189C371.299 250.321 371.512 250.431 371.629 250.519L370.771 251.971C370.624 251.846 370.36 251.703 369.979 251.542C369.605 251.381 369.183 251.3 368.714 251.3C368.245 251.3 367.849 251.384 367.526 251.553C367.203 251.722 367.042 251.975 367.042 252.312C367.042 252.642 367.211 252.906 367.548 253.104C367.893 253.302 368.358 253.467 368.945 253.599C369.429 253.709 369.891 253.863 370.331 254.061C370.771 254.252 371.13 254.527 371.409 254.886C371.695 255.238 371.838 255.711 371.838 256.305C371.838 256.87 371.717 257.343 371.475 257.724C371.24 258.098 370.925 258.399 370.529 258.626C370.133 258.853 369.693 259.015 369.209 259.11C368.732 259.213 368.252 259.264 367.768 259.264C367.174 259.264 366.642 259.205 366.173 259.088C365.711 258.971 365.326 258.835 365.018 258.681C364.71 258.52 364.49 258.384 364.358 258.274L365.216 256.646C365.407 256.829 365.718 257.024 366.151 257.229C366.584 257.427 367.068 257.526 367.603 257.526C368.175 257.526 368.633 257.416 368.978 257.196C369.323 256.976 369.495 256.683 369.495 256.316C369.495 256.045 369.411 255.825 369.242 255.656C369.081 255.487 368.857 255.352 368.571 255.249C368.285 255.146 367.966 255.055 367.614 254.974C367.284 254.893 366.95 254.791 366.613 254.666C366.283 254.534 365.979 254.365 365.7 254.16C365.421 253.947 365.198 253.683 365.029 253.368C364.86 253.053 364.776 252.682 364.776 252.257C364.776 251.714 364.948 251.252 365.293 250.871C365.638 250.49 366.092 250.2 366.657 250.002C367.222 249.804 367.827 249.705 368.472 249.705ZM374.107 259V249.969H376.45V259H374.107ZM375.306 247.263C374.91 247.263 374.569 247.12 374.283 246.834C374.004 246.548 373.865 246.207 373.865 245.811C373.865 245.415 374.004 245.074 374.283 244.788C374.569 244.495 374.91 244.348 375.306 244.348C375.57 244.348 375.812 244.418 376.032 244.557C376.259 244.689 376.439 244.865 376.571 245.085C376.71 245.298 376.78 245.54 376.78 245.811C376.78 246.207 376.637 246.548 376.351 246.834C376.065 247.12 375.716 247.263 375.306 247.263ZM383.638 263.829C382.949 263.829 382.307 263.759 381.713 263.62C381.127 263.488 380.602 263.286 380.14 263.015C379.678 262.751 379.304 262.425 379.018 262.036L380.481 260.584C380.635 260.775 380.833 260.973 381.075 261.178C381.317 261.391 381.636 261.567 382.032 261.706C382.428 261.853 382.931 261.926 383.539 261.926C384.133 261.926 384.639 261.805 385.057 261.563C385.483 261.321 385.805 260.987 386.025 260.562C386.253 260.144 386.366 259.66 386.366 259.11V258.835H388.676V259.253C388.676 260.25 388.453 261.086 388.005 261.761C387.558 262.443 386.953 262.956 386.19 263.301C385.428 263.653 384.577 263.829 383.638 263.829ZM386.366 259V257.328C386.308 257.504 386.139 257.746 385.86 258.054C385.589 258.362 385.215 258.641 384.738 258.89C384.269 259.139 383.712 259.264 383.066 259.264C382.223 259.264 381.464 259.062 380.789 258.659C380.115 258.256 379.583 257.695 379.194 256.976C378.806 256.257 378.611 255.429 378.611 254.49C378.611 253.551 378.806 252.723 379.194 252.004C379.583 251.285 380.115 250.724 380.789 250.321C381.464 249.91 382.223 249.705 383.066 249.705C383.697 249.705 384.243 249.815 384.705 250.035C385.167 250.255 385.538 250.508 385.816 250.794C386.102 251.08 386.278 251.329 386.344 251.542V249.969H388.676V259H386.366ZM380.932 254.49C380.932 255.069 381.061 255.575 381.317 256.008C381.574 256.441 381.908 256.774 382.318 257.009C382.736 257.244 383.184 257.361 383.66 257.361C384.174 257.361 384.628 257.24 385.024 256.998C385.428 256.756 385.743 256.422 385.97 255.997C386.205 255.564 386.322 255.062 386.322 254.49C386.322 253.918 386.205 253.419 385.97 252.994C385.743 252.561 385.428 252.224 385.024 251.982C384.628 251.733 384.174 251.608 383.66 251.608C383.184 251.608 382.736 251.729 382.318 251.971C381.908 252.206 381.574 252.539 381.317 252.972C381.061 253.405 380.932 253.911 380.932 254.49ZM396.584 249.705C397.192 249.705 397.783 249.83 398.355 250.079C398.927 250.328 399.396 250.728 399.763 251.278C400.137 251.821 400.324 252.528 400.324 253.401V259H397.959V253.83C397.959 253.016 397.764 252.418 397.376 252.037C396.994 251.648 396.499 251.454 395.891 251.454C395.487 251.454 395.102 251.568 394.736 251.795C394.369 252.022 394.068 252.33 393.834 252.719C393.606 253.108 393.493 253.555 393.493 254.061V259H391.139V249.969H393.493V251.487C393.559 251.238 393.735 250.977 394.021 250.706C394.314 250.427 394.684 250.193 395.132 250.002C395.579 249.804 396.063 249.705 396.584 249.705Z" fill="#FB2424"/>
<path d="M281.026 446.548H277.253V444.48H287.12V446.548H283.347V459H281.026V446.548ZM288.923 455.04C288.937 455.517 289.051 455.946 289.264 456.327C289.476 456.708 289.788 457.009 290.199 457.229C290.617 457.442 291.126 457.548 291.728 457.548C292.248 457.548 292.696 457.478 293.07 457.339C293.451 457.192 293.766 457.02 294.016 456.822C294.265 456.617 294.448 456.426 294.566 456.25L295.611 457.669C295.383 457.977 295.097 458.252 294.753 458.494C294.408 458.736 293.979 458.923 293.466 459.055C292.96 459.194 292.333 459.264 291.585 459.264C290.602 459.264 289.748 459.062 289.022 458.659C288.296 458.256 287.731 457.687 287.328 456.954C286.932 456.221 286.734 455.363 286.734 454.38C286.734 453.5 286.917 452.708 287.284 452.004C287.65 451.293 288.182 450.732 288.879 450.321C289.583 449.91 290.426 449.705 291.409 449.705C292.325 449.705 293.121 449.888 293.796 450.255C294.47 450.622 294.991 451.15 295.358 451.839C295.732 452.521 295.919 453.346 295.919 454.314C295.919 454.373 295.915 454.494 295.908 454.677C295.908 454.86 295.9 454.981 295.886 455.04H288.923ZM293.719 453.324C293.711 453.089 293.631 452.822 293.477 452.521C293.33 452.22 293.092 451.96 292.762 451.74C292.432 451.513 291.992 451.399 291.442 451.399C290.877 451.399 290.419 451.509 290.067 451.729C289.715 451.942 289.454 452.198 289.286 452.499C289.117 452.792 289.018 453.067 288.989 453.324H293.719ZM301.505 449.705C302.011 449.705 302.48 449.753 302.913 449.848C303.346 449.943 303.716 450.057 304.024 450.189C304.332 450.321 304.545 450.431 304.662 450.519L303.804 451.971C303.657 451.846 303.393 451.703 303.012 451.542C302.638 451.381 302.216 451.3 301.747 451.3C301.278 451.3 300.882 451.384 300.559 451.553C300.236 451.722 300.075 451.975 300.075 452.312C300.075 452.642 300.244 452.906 300.581 453.104C300.926 453.302 301.391 453.467 301.978 453.599C302.462 453.709 302.924 453.863 303.364 454.061C303.804 454.252 304.163 454.527 304.442 454.886C304.728 455.238 304.871 455.711 304.871 456.305C304.871 456.87 304.75 457.343 304.508 457.724C304.273 458.098 303.958 458.399 303.562 458.626C303.166 458.853 302.726 459.015 302.242 459.11C301.765 459.213 301.285 459.264 300.801 459.264C300.207 459.264 299.675 459.205 299.206 459.088C298.744 458.971 298.359 458.835 298.051 458.681C297.743 458.52 297.523 458.384 297.391 458.274L298.249 456.646C298.44 456.829 298.751 457.024 299.184 457.229C299.617 457.427 300.101 457.526 300.636 457.526C301.208 457.526 301.666 457.416 302.011 457.196C302.356 456.976 302.528 456.683 302.528 456.316C302.528 456.045 302.444 455.825 302.275 455.656C302.114 455.487 301.89 455.352 301.604 455.249C301.318 455.146 300.999 455.055 300.647 454.974C300.317 454.893 299.983 454.791 299.646 454.666C299.316 454.534 299.012 454.365 298.733 454.16C298.454 453.947 298.231 453.683 298.062 453.368C297.893 453.053 297.809 452.682 297.809 452.257C297.809 451.714 297.981 451.252 298.326 450.871C298.671 450.49 299.125 450.2 299.69 450.002C300.255 449.804 300.86 449.705 301.505 449.705ZM306.044 449.969H307.738V446.262H310.07V449.969H312.303V451.949H310.07V455.81C310.07 456.294 310.15 456.657 310.312 456.899C310.48 457.141 310.719 457.262 311.027 457.262C311.283 457.262 311.485 457.214 311.632 457.119C311.786 457.024 311.877 456.958 311.907 456.921L312.776 458.626C312.732 458.67 312.603 458.743 312.391 458.846C312.178 458.949 311.903 459.044 311.566 459.132C311.228 459.22 310.843 459.264 310.411 459.264C309.648 459.264 309.01 459.037 308.497 458.582C307.991 458.127 307.738 457.416 307.738 456.448V451.949H306.044V449.969ZM314.488 459V449.969H316.831V459H314.488ZM315.687 447.263C315.291 447.263 314.95 447.12 314.664 446.834C314.385 446.548 314.246 446.207 314.246 445.811C314.246 445.415 314.385 445.074 314.664 444.788C314.95 444.495 315.291 444.348 315.687 444.348C315.951 444.348 316.193 444.418 316.413 444.557C316.64 444.689 316.82 444.865 316.952 445.085C317.091 445.298 317.161 445.54 317.161 445.811C317.161 446.207 317.018 446.548 316.732 446.834C316.446 447.12 316.097 447.263 315.687 447.263ZM324.976 449.705C325.585 449.705 326.175 449.83 326.747 450.079C327.319 450.328 327.789 450.728 328.155 451.278C328.529 451.821 328.716 452.528 328.716 453.401V459H326.351V453.83C326.351 453.016 326.157 452.418 325.768 452.037C325.387 451.648 324.892 451.454 324.283 451.454C323.88 451.454 323.495 451.568 323.128 451.795C322.762 452.022 322.461 452.33 322.226 452.719C321.999 453.108 321.885 453.555 321.885 454.061V459H319.531V449.969H321.885V451.487C321.951 451.238 322.127 450.977 322.413 450.706C322.707 450.427 323.077 450.193 323.524 450.002C323.972 449.804 324.456 449.705 324.976 449.705ZM335.513 463.829C334.824 463.829 334.182 463.759 333.588 463.62C333.002 463.488 332.477 463.286 332.015 463.015C331.553 462.751 331.179 462.425 330.893 462.036L332.356 460.584C332.51 460.775 332.708 460.973 332.95 461.178C333.192 461.391 333.511 461.567 333.907 461.706C334.303 461.853 334.806 461.926 335.414 461.926C336.008 461.926 336.514 461.805 336.932 461.563C337.358 461.321 337.68 460.987 337.9 460.562C338.128 460.144 338.241 459.66 338.241 459.11V458.835H340.551V459.253C340.551 460.25 340.328 461.086 339.88 461.761C339.433 462.443 338.828 462.956 338.065 463.301C337.303 463.653 336.452 463.829 335.513 463.829ZM338.241 459V457.328C338.183 457.504 338.014 457.746 337.735 458.054C337.464 458.362 337.09 458.641 336.613 458.89C336.144 459.139 335.587 459.264 334.941 459.264C334.098 459.264 333.339 459.062 332.664 458.659C331.99 458.256 331.458 457.695 331.069 456.976C330.681 456.257 330.486 455.429 330.486 454.49C330.486 453.551 330.681 452.723 331.069 452.004C331.458 451.285 331.99 450.724 332.664 450.321C333.339 449.91 334.098 449.705 334.941 449.705C335.572 449.705 336.118 449.815 336.58 450.035C337.042 450.255 337.413 450.508 337.691 450.794C337.977 451.08 338.153 451.329 338.219 451.542V449.969H340.551V459H338.241ZM332.807 454.49C332.807 455.069 332.936 455.575 333.192 456.008C333.449 456.441 333.783 456.774 334.193 457.009C334.611 457.244 335.059 457.361 335.535 457.361C336.049 457.361 336.503 457.24 336.899 456.998C337.303 456.756 337.618 456.422 337.845 455.997C338.08 455.564 338.197 455.062 338.197 454.49C338.197 453.918 338.08 453.419 337.845 452.994C337.618 452.561 337.303 452.224 336.899 451.982C336.503 451.733 336.049 451.608 335.535 451.608C335.059 451.608 334.611 451.729 334.193 451.971C333.783 452.206 333.449 452.539 333.192 452.972C332.936 453.405 332.807 453.911 332.807 454.49Z" fill="#7700FF"/>
<path d="M282.885 644.216C283.736 644.216 284.473 644.315 285.096 644.513C285.727 644.704 286.225 644.909 286.592 645.129C286.959 645.342 287.179 645.481 287.252 645.547L286.097 647.428C285.987 647.333 285.789 647.201 285.503 647.032C285.224 646.856 284.88 646.698 284.469 646.559C284.066 646.42 283.615 646.35 283.116 646.35C282.368 646.35 281.774 646.497 281.334 646.79C280.894 647.076 280.674 647.494 280.674 648.044C280.674 648.411 280.791 648.733 281.026 649.012C281.261 649.291 281.594 649.551 282.027 649.793C282.467 650.035 282.991 650.281 283.6 650.53C284.113 650.743 284.612 650.985 285.096 651.256C285.587 651.527 286.027 651.846 286.416 652.213C286.805 652.58 287.113 653.005 287.34 653.489C287.575 653.973 287.692 654.53 287.692 655.161C287.692 655.821 287.556 656.408 287.285 656.921C287.014 657.427 286.64 657.856 286.163 658.208C285.686 658.553 285.136 658.817 284.513 659C283.897 659.176 283.237 659.264 282.533 659.264C281.609 659.264 280.777 659.154 280.036 658.934C279.303 658.707 278.709 658.472 278.254 658.23C277.799 657.981 277.535 657.819 277.462 657.746L278.683 655.777C278.771 655.85 278.932 655.96 279.167 656.107C279.409 656.246 279.706 656.397 280.058 656.558C280.41 656.712 280.799 656.844 281.224 656.954C281.657 657.057 282.104 657.108 282.566 657.108C283.453 657.108 284.124 656.917 284.579 656.536C285.034 656.147 285.261 655.649 285.261 655.04C285.261 654.578 285.114 654.178 284.821 653.841C284.535 653.496 284.139 653.185 283.633 652.906C283.134 652.627 282.566 652.352 281.928 652.081C281.275 651.795 280.67 651.472 280.113 651.113C279.563 650.754 279.119 650.317 278.782 649.804C278.445 649.283 278.276 648.653 278.276 647.912C278.276 647.171 278.485 646.526 278.903 645.976C279.328 645.419 279.889 644.986 280.586 644.678C281.283 644.37 282.049 644.216 282.885 644.216ZM292.138 654.402C292.138 655.282 292.318 655.982 292.677 656.503C293.044 657.024 293.619 657.284 294.404 657.284C295.196 657.284 295.772 657.024 296.131 656.503C296.49 655.982 296.67 655.282 296.67 654.402V649.969H299.002V654.699C299.002 655.608 298.822 656.408 298.463 657.097C298.104 657.779 297.583 658.311 296.901 658.692C296.219 659.073 295.387 659.264 294.404 659.264C293.429 659.264 292.6 659.073 291.918 658.692C291.236 658.311 290.715 657.779 290.356 657.097C289.997 656.408 289.817 655.608 289.817 654.699V649.969H292.138V654.402ZM303.786 663.576H301.454V649.969H303.819V651.542C303.899 651.322 304.086 651.069 304.38 650.783C304.68 650.497 305.076 650.248 305.568 650.035C306.059 649.815 306.62 649.705 307.251 649.705C308.101 649.705 308.846 649.91 309.484 650.321C310.129 650.724 310.631 651.285 310.991 652.004C311.357 652.723 311.541 653.551 311.541 654.49C311.541 655.429 311.354 656.257 310.98 656.976C310.606 657.695 310.089 658.256 309.429 658.659C308.776 659.062 308.024 659.264 307.174 659.264C306.506 659.264 305.927 659.143 305.436 658.901C304.944 658.652 304.559 658.373 304.281 658.065C304.002 657.757 303.837 657.511 303.786 657.328V663.576ZM309.22 654.49C309.22 653.911 309.099 653.405 308.857 652.972C308.615 652.539 308.292 652.206 307.889 651.971C307.493 651.729 307.056 651.608 306.58 651.608C306.066 651.608 305.601 651.733 305.183 651.982C304.765 652.224 304.431 652.561 304.182 652.994C303.94 653.419 303.819 653.918 303.819 654.49C303.819 655.062 303.94 655.564 304.182 655.997C304.431 656.422 304.765 656.756 305.183 656.998C305.601 657.24 306.066 657.361 306.58 657.361C307.056 657.361 307.493 657.244 307.889 657.009C308.292 656.774 308.615 656.441 308.857 656.008C309.099 655.575 309.22 655.069 309.22 654.49ZM315.795 663.576H313.463V649.969H315.828V651.542C315.909 651.322 316.096 651.069 316.389 650.783C316.69 650.497 317.086 650.248 317.577 650.035C318.069 649.815 318.63 649.705 319.26 649.705C320.111 649.705 320.855 649.91 321.493 650.321C322.139 650.724 322.641 651.285 323 652.004C323.367 652.723 323.55 653.551 323.55 654.49C323.55 655.429 323.363 656.257 322.989 656.976C322.615 657.695 322.098 658.256 321.438 658.659C320.786 659.062 320.034 659.264 319.183 659.264C318.516 659.264 317.937 659.143 317.445 658.901C316.954 658.652 316.569 658.373 316.29 658.065C316.012 657.757 315.847 657.511 315.795 657.328V663.576ZM321.229 654.49C321.229 653.911 321.108 653.405 320.866 652.972C320.624 652.539 320.302 652.206 319.898 651.971C319.502 651.729 319.066 651.608 318.589 651.608C318.076 651.608 317.61 651.733 317.192 651.982C316.774 652.224 316.441 652.561 316.191 652.994C315.949 653.419 315.828 653.918 315.828 654.49C315.828 655.062 315.949 655.564 316.191 655.997C316.441 656.422 316.774 656.756 317.192 656.998C317.61 657.24 318.076 657.361 318.589 657.361C319.066 657.361 319.502 657.244 319.898 657.009C320.302 656.774 320.624 656.441 320.866 656.008C321.108 655.575 321.229 655.069 321.229 654.49ZM329.763 659.264C328.817 659.264 327.974 659.059 327.233 658.648C326.5 658.23 325.924 657.665 325.506 656.954C325.088 656.235 324.879 655.421 324.879 654.512C324.879 653.603 325.088 652.785 325.506 652.059C325.924 651.333 326.5 650.761 327.233 650.343C327.974 649.918 328.817 649.705 329.763 649.705C330.709 649.705 331.545 649.918 332.271 650.343C332.997 650.761 333.565 651.333 333.976 652.059C334.394 652.785 334.603 653.603 334.603 654.512C334.603 655.421 334.394 656.235 333.976 656.954C333.565 657.665 332.997 658.23 332.271 658.648C331.545 659.059 330.709 659.264 329.763 659.264ZM329.763 657.284C330.291 657.284 330.749 657.163 331.138 656.921C331.527 656.679 331.827 656.349 332.04 655.931C332.253 655.513 332.359 655.036 332.359 654.501C332.359 653.966 332.253 653.489 332.04 653.071C331.827 652.646 331.527 652.308 331.138 652.059C330.749 651.81 330.291 651.685 329.763 651.685C329.235 651.685 328.773 651.81 328.377 652.059C327.988 652.308 327.684 652.646 327.464 653.071C327.251 653.489 327.145 653.966 327.145 654.501C327.145 655.036 327.251 655.513 327.464 655.931C327.684 656.349 327.988 656.679 328.377 656.921C328.773 657.163 329.235 657.284 329.763 657.284ZM338.824 659H336.481V649.969H338.824V651.476H338.769C338.82 651.293 338.96 651.065 339.187 650.794C339.422 650.515 339.744 650.266 340.155 650.046C340.566 649.819 341.061 649.705 341.64 649.705C342.058 649.705 342.432 649.764 342.762 649.881C343.092 649.998 343.327 650.116 343.466 650.233L342.52 652.169C342.425 652.052 342.245 651.938 341.981 651.828C341.724 651.711 341.405 651.652 341.024 651.652C340.547 651.652 340.144 651.791 339.814 652.07C339.491 652.349 339.246 652.682 339.077 653.071C338.908 653.46 338.824 653.823 338.824 654.16V659ZM344.007 649.969H345.701V646.262H348.033V649.969H350.266V651.949H348.033V655.81C348.033 656.294 348.113 656.657 348.275 656.899C348.443 657.141 348.682 657.262 348.99 657.262C349.246 657.262 349.448 657.214 349.595 657.119C349.749 657.024 349.84 656.958 349.87 656.921L350.739 658.626C350.695 658.67 350.566 658.743 350.354 658.846C350.141 658.949 349.866 659.044 349.529 659.132C349.191 659.22 348.806 659.264 348.374 659.264C347.611 659.264 346.973 659.037 346.46 658.582C345.954 658.127 345.701 657.416 345.701 656.448V651.949H344.007V649.969Z" fill="#0095FF"/>
<path d="M84.101 544.48H86.422V556.932H91.999V559H84.101V544.48ZM101.531 559V557.328C101.472 557.504 101.303 557.746 101.025 558.054C100.753 558.362 100.379 558.641 99.9025 558.89C99.4332 559.139 98.8759 559.264 98.2305 559.264C97.3872 559.264 96.6282 559.062 95.9535 558.659C95.2789 558.256 94.7472 557.695 94.3585 556.976C93.9699 556.257 93.7755 555.429 93.7755 554.49C93.7755 553.551 93.9699 552.723 94.3585 552.004C94.7472 551.285 95.2789 550.724 95.9535 550.321C96.6282 549.91 97.3872 549.705 98.2305 549.705C98.8612 549.705 99.4075 549.815 99.8695 550.035C100.332 550.255 100.702 550.508 100.981 550.794C101.267 551.08 101.443 551.329 101.509 551.542V549.969H103.841V559H101.531ZM96.0965 554.49C96.0965 555.069 96.2249 555.575 96.4815 556.008C96.7382 556.441 97.0719 556.774 97.4825 557.009C97.9005 557.244 98.3479 557.361 98.8245 557.361C99.3379 557.361 99.7925 557.24 100.189 556.998C100.592 556.756 100.907 556.422 101.135 555.997C101.369 555.564 101.487 555.062 101.487 554.49C101.487 553.918 101.369 553.419 101.135 552.994C100.907 552.561 100.592 552.224 100.189 551.982C99.7925 551.733 99.3379 551.608 98.8245 551.608C98.3479 551.608 97.9005 551.729 97.4825 551.971C97.0719 552.206 96.7382 552.539 96.4815 552.972C96.2249 553.405 96.0965 553.911 96.0965 554.49ZM108.472 554.402C108.472 555.282 108.652 555.982 109.011 556.503C109.378 557.024 109.953 557.284 110.738 557.284C111.53 557.284 112.106 557.024 112.465 556.503C112.824 555.982 113.004 555.282 113.004 554.402V549.969H115.336V554.699C115.336 555.608 115.156 556.408 114.797 557.097C114.438 557.779 113.917 558.311 113.235 558.692C112.553 559.073 111.721 559.264 110.738 559.264C109.763 559.264 108.934 559.073 108.252 558.692C107.57 558.311 107.049 557.779 106.69 557.097C106.331 556.408 106.151 555.608 106.151 554.699V549.969H108.472V554.402ZM123.178 549.705C123.786 549.705 124.377 549.83 124.949 550.079C125.521 550.328 125.99 550.728 126.357 551.278C126.731 551.821 126.918 552.528 126.918 553.401V559H124.553V553.83C124.553 553.016 124.358 552.418 123.97 552.037C123.588 551.648 123.093 551.454 122.485 551.454C122.081 551.454 121.696 551.568 121.33 551.795C120.963 552.022 120.662 552.33 120.428 552.719C120.2 553.108 120.087 553.555 120.087 554.061V559H117.733V549.969H120.087V551.487C120.153 551.238 120.329 550.977 120.615 550.706C120.908 550.427 121.278 550.193 121.726 550.002C122.173 549.804 122.657 549.705 123.178 549.705ZM133.726 557.361C134.246 557.361 134.668 557.277 134.991 557.108C135.321 556.932 135.533 556.804 135.629 556.723L136.74 558.373C136.652 558.446 136.468 558.556 136.19 558.703C135.911 558.842 135.555 558.971 135.123 559.088C134.697 559.205 134.213 559.264 133.671 559.264C132.776 559.264 131.962 559.077 131.229 558.703C130.503 558.322 129.92 557.775 129.48 557.064C129.047 556.345 128.831 555.484 128.831 554.479C128.831 553.467 129.047 552.605 129.48 551.894C129.92 551.183 130.503 550.64 131.229 550.266C131.962 549.892 132.776 549.705 133.671 549.705C134.206 549.705 134.683 549.767 135.101 549.892C135.526 550.009 135.878 550.145 136.157 550.299C136.435 550.453 136.622 550.574 136.718 550.662L135.585 552.312C135.533 552.261 135.427 552.18 135.266 552.07C135.112 551.953 134.906 551.846 134.65 551.751C134.393 551.656 134.085 551.608 133.726 551.608C133.286 551.608 132.864 551.725 132.461 551.96C132.057 552.195 131.727 552.528 131.471 552.961C131.214 553.386 131.086 553.892 131.086 554.479C131.086 555.066 131.214 555.575 131.471 556.008C131.727 556.441 132.057 556.774 132.461 557.009C132.864 557.244 133.286 557.361 133.726 557.361ZM143.944 549.705C144.545 549.705 145.132 549.83 145.704 550.079C146.276 550.328 146.745 550.728 147.112 551.278C147.486 551.821 147.673 552.528 147.673 553.401V559H145.308V553.83C145.308 553.016 145.121 552.418 144.747 552.037C144.38 551.648 143.893 551.454 143.284 551.454C142.881 551.454 142.492 551.568 142.118 551.795C141.744 552.022 141.436 552.33 141.194 552.719C140.959 553.108 140.842 553.555 140.842 554.061V559H138.477V543.864H140.842V551.487C140.908 551.238 141.084 550.977 141.37 550.706C141.663 550.427 142.034 550.193 142.481 550.002C142.928 549.804 143.416 549.705 143.944 549.705Z" fill="#393FFF"/>
<defs>
<filter id="filter0_d_43_14" x="51.6" y="0.6" width="114.8" height="114.8" filterUnits="userSpaceOnUse" color-interpolation-filters="sRGB">
<feFlood flood-opacity="0" result="BackgroundImageFix"/>
<feColorMatrix in="SourceAlpha" type="matrix" values="0 0 0 0 0 0 0 0 0 0 0 0 0 0 0 0 0 0 127 0" result="hardAlpha"/>
<feOffset dy="4"/>
<feGaussianBlur stdDeviation="11.2"/>
<feComposite in2="hardAlpha" operator="out"/>
<feColorMatrix type="matrix" values="0 0 0 0 0 0 0 0 0 0 0 0 0 0 0 0 0 0 0.41 0"/>
<feBlend mode="normal" in2="BackgroundImageFix" result="effect1_dropShadow_43_14"/>
<feBlend mode="normal" in="SourceGraphic" in2="effect1_dropShadow_43_14" result="shape"/>
</filter>
<filter id="filter1_d_43_14" x="51.6" y="200.6" width="114.8" height="114.8" filterUnits="userSpaceOnUse" color-interpolation-filters="sRGB">
<feFlood flood-opacity="0" result="BackgroundImageFix"/>
<feColorMatrix in="SourceAlpha" type="matrix" values="0 0 0 0 0 0 0 0 0 0 0 0 0 0 0 0 0 0 127 0" result="hardAlpha"/>
<feOffset dy="4"/>
<feGaussianBlur stdDeviation="11.2"/>
<feComposite in2="hardAlpha" operator="out"/>
<feColorMatrix type="matrix" values="0 0 0 0 0 0 0 0 0 0 0 0 0 0 0 0 0 0 0.41 0"/>
<feBlend mode="normal" in2="BackgroundImageFix" result="effect1_dropShadow_43_14"/>
<feBlend mode="normal" in="SourceGraphic" in2="effect1_dropShadow_43_14" result="shape"/>
</filter>
<filter id="filter2_d_43_14" x="51.6" y="400.6" width="114.8" height="114.8" filterUnits="userSpaceOnUse" color-interpolation-filters="sRGB">
<feFlood flood-opacity="0" result="BackgroundImageFix"/>
<feColorMatrix in="SourceAlpha" type="matrix" values="0 0 0 0 0 0 0 0 0 0 0 0 0 0 0 0 0 0 127 0" result="hardAlpha"/>
<feOffset dy="4"/>
<feGaussianBlur stdDeviation="11.2"/>
<feComposite in2="hardAlpha" operator="out"/>
<feColorMatrix type="matrix" values="0 0 0 0 0 0 0 0 0 0 0 0 0 0 0 0 0 0 0.41 0"/>
<feBlend mode="normal" in2="BackgroundImageFix" result="effect1_dropShadow_43_14"/>
<feBlend mode="normal" in="SourceGraphic" in2="effect1_dropShadow_43_14" result="shape"/>
</filter>
<filter id="filter3_d_43_14" x="51.6" y="600.6" width="114.8" height="114.8" filterUnits="userSpaceOnUse" color-interpolation-filters="sRGB">
<feFlood flood-opacity="0" result="BackgroundImageFix"/>
<feColorMatrix in="SourceAlpha" type="matrix" values="0 0 0 0 0 0 0 0 0 0 0 0 0 0 0 0 0 0 127 0" result="hardAlpha"/>
<feOffset dy="4"/>
<feGaussianBlur stdDeviation="11.2"/>
<feComposite in2="hardAlpha" operator="out"/>
<feColorMatrix type="matrix" values="0 0 0 0 0 0 0 0 0 0 0 0 0 0 0 0 0 0 0.41 0"/>
<feBlend mode="normal" in2="BackgroundImageFix" result="effect1_dropShadow_43_14"/>
<feBlend mode="normal" in="SourceGraphic" in2="effect1_dropShadow_43_14" result="shape"/>
</filter>
<filter id="filter4_d_43_14" x="259.6" y="100.6" width="114.8" height="114.8" filterUnits="userSpaceOnUse" color-interpolation-filters="sRGB">
<feFlood flood-opacity="0" result="BackgroundImageFix"/>
<feColorMatrix in="SourceAlpha" type="matrix" values="0 0 0 0 0 0 0 0 0 0 0 0 0 0 0 0 0 0 127 0" result="hardAlpha"/>
<feOffset dy="4"/>
<feGaussianBlur stdDeviation="11.2"/>
<feComposite in2="hardAlpha" operator="out"/>
<feColorMatrix type="matrix" values="0 0 0 0 0 0 0 0 0 0 0 0 0 0 0 0 0 0 0.41 0"/>
<feBlend mode="normal" in2="BackgroundImageFix" result="effect1_dropShadow_43_14"/>
<feBlend mode="normal" in="SourceGraphic" in2="effect1_dropShadow_43_14" result="shape"/>
</filter>
<filter id="filter5_d_43_14" x="259.6" y="300.6" width="114.8" height="114.8" filterUnits="userSpaceOnUse" color-interpolation-filters="sRGB">
<feFlood flood-opacity="0" result="BackgroundImageFix"/>
<feColorMatrix in="SourceAlpha" type="matrix" values="0 0 0 0 0 0 0 0 0 0 0 0 0 0 0 0 0 0 127 0" result="hardAlpha"/>
<feOffset dy="4"/>
<feGaussianBlur stdDeviation="11.2"/>
<feComposite in2="hardAlpha" operator="out"/>
<feColorMatrix type="matrix" values="0 0 0 0 0 0 0 0 0 0 0 0 0 0 0 0 0 0 0.41 0"/>
<feBlend mode="normal" in2="BackgroundImageFix" result="effect1_dropShadow_43_14"/>
<feBlend mode="normal" in="SourceGraphic" in2="effect1_dropShadow_43_14" result="shape"/>
</filter>
<filter id="filter6_d_43_14" x="259.6" y="500.6" width="114.8" height="114.8" filterUnits="userSpaceOnUse" color-interpolation-filters="sRGB">
<feFlood flood-opacity="0" result="BackgroundImageFix"/>
<feColorMatrix in="SourceAlpha" type="matrix" values="0 0 0 0 0 0 0 0 0 0 0 0 0 0 0 0 0 0 127 0" result="hardAlpha"/>
<feOffset dy="4"/>
<feGaussianBlur stdDeviation="11.2"/>
<feComposite in2="hardAlpha" operator="out"/>
<feColorMatrix type="matrix" values="0 0 0 0 0 0 0 0 0 0 0 0 0 0 0 0 0 0 0.41 0"/>
<feBlend mode="normal" in2="BackgroundImageFix" result="effect1_dropShadow_43_14"/>
<feBlend mode="normal" in="SourceGraphic" in2="effect1_dropShadow_43_14" result="shape"/>
</filter>
<linearGradient id="paint0_linear_43_14" x1="212.5" y1="34" x2="212.5" y2="634" gradientUnits="userSpaceOnUse">
<stop offset="0.000381632" stop-color="#FFA200"/>
<stop offset="0.0669198" stop-color="#FFA200"/>
<stop offset="0.123629" stop-color="#FF7300"/>
<stop offset="0.234021" stop-color="#FF7300"/>
<stop offset="0.283623" stop-color="#FB2424"/>
<stop offset="0.398855" stop-color="#FB2424"/>
<stop offset="0.450169" stop-color="#FF00B3"/>
<stop offset="0.566712" stop-color="#FF00B3"/>
<stop offset="0.633074" stop-color="#7700FF"/>
<stop offset="0.732302" stop-color="#7700FF"/>
<stop offset="0.783262" stop-color="#393FFF"/>
<stop offset="0.90016" stop-color="#393FFF"/>
<stop offset="1" stop-color="#0095FF"/>
</linearGradient>
<clipPath id="clip0_43_14">
<rect width="40" height="35.5556" fill="white" transform="translate(89 236)"/>
</clipPath>
<clipPath id="clip1_43_14">
<rect width="40" height="40" fill="white" transform="translate(89 634)"/>
</clipPath>
<clipPath id="clip2_43_14">
<rect width="40" height="32" fill="white" transform="translate(296 339)"/>
</clipPath>
<clipPath id="clip3_43_14">
<rect width="40" height="40" fill="white" transform="translate(296 536)"/>
</clipPath>
</defs>
</svg>
